<svg width="188" height="59" viewBox="0 0 188 59" fill="none" xmlns="http://www.w3.org/2000/svg">
    <path d="M90.568 21.6643H88.4604C87.6173 21.6643 86.9429 22.3895 86.9429 23.2673V39.7933C86.9429 40.6838 87.6294 41.3962 88.4604 41.3962H90.568C91.411 41.3962 92.0854 40.6711 92.0854 39.7933V23.2673C92.0854 22.3767 91.411 21.6643 90.568 21.6643Z" fill="#5CB85C"/>
    <path d="M82.9686 21.6643C81.6439 21.6643 80.5238 22.504 79.9819 23.7126L74.3696 36.2947C74.2371 36.5873 73.9722 37.0835 73.7554 37.0835C73.5386 37.0835 73.2736 36.6 73.1412 36.2947L67.4928 23.7126C66.9508 22.504 65.8308 21.6643 64.506 21.6643H61.2422L70.1423 39.8696C71.0215 41.6634 72.828 41.6252 73.7554 41.6252C75.032 41.6252 76.5374 41.5489 77.3202 39.8696L86.2204 21.6643H82.9686Z" fill="#5CB85C"/>
    <path d="M181.328 18.6364C181.328 17.7459 180.642 17.0334 179.811 17.0334H177.703C176.86 17.0334 176.186 17.7586 176.186 18.6364V34.9588C176.186 37.4524 177.029 38.9027 178.522 39.9459C179.979 40.9509 181.653 41.3962 184.785 41.3962H186.483C187.326 41.3962 188 40.6711 188 39.7932V38.0503H186.724C185.796 38.0503 183.857 38.0121 182.713 37.1979C181.22 36.1547 181.352 34.2973 181.352 32.9488V18.6364H181.328Z" fill="#5CB85C"/>
    <path d="M148.316 38.0503C147.389 38.0503 145.45 38.0121 144.306 37.1979C142.813 36.1547 142.945 34.2973 142.945 32.9488V25.0102H147.943C148.786 25.0102 149.461 24.285 149.461 23.4072V21.6643H142.945V18.6364C142.945 17.7459 142.259 17.0334 141.428 17.0334H139.32C138.477 17.0334 137.802 17.7586 137.802 18.6364V21.6643H127.048V18.6364C127.048 17.7459 126.361 17.0334 125.53 17.0334H123.423C122.58 17.0334 121.905 17.7586 121.905 18.6364V21.6643H118.689V23.4072C118.689 24.2977 119.376 25.0102 120.207 25.0102H121.905V34.9588C121.905 37.4524 122.748 38.9027 124.242 39.9459C125.699 40.9509 127.373 41.3962 130.504 41.3962H132.202C133.045 41.3962 133.72 40.6711 133.72 39.7932V38.0503H132.443C131.516 38.0503 129.577 38.0121 128.433 37.1979C126.939 36.1547 127.072 34.2973 127.072 32.9488V25.0102H137.827V34.9588C137.827 37.4524 138.67 38.9027 140.163 39.9459C141.62 40.9509 143.294 41.3962 146.426 41.3962H148.076C148.919 41.3962 149.593 40.6711 149.593 39.7932V38.0503H148.316Z" fill="#5CB85C"/>
    <path d="M116.763 39.7932V38.0503H105.345C103.455 38.0503 101.287 37.8213 100.636 35.7094C100.456 35.1115 100.323 33.852 100.323 32.9869H113.896C114.824 32.9869 115.703 32.8342 116.413 32.2363C117.377 31.4221 117.509 30.2643 117.509 29.2593C117.509 26.7658 116.931 24.3104 114.209 22.8601C112.054 21.7024 109.235 21.5879 106.502 21.5879C104.298 21.5879 100.335 21.5879 97.782 23.4453C95.2288 25.3027 95 28.0253 95 31.7147C95 34.3227 95.1325 37.0452 96.674 38.9026C98.6131 41.2053 101.431 41.3962 103.816 41.3962H115.245C116.088 41.3962 116.763 40.671 116.763 39.7932ZM112.186 28.4705C112.186 28.9921 112.054 29.6282 111.042 29.6282H103.707C101.841 29.6282 100.335 30.5315 100.335 31.6383V29.6282C100.383 28.3306 100.335 27.2492 101.395 26.2442C102.804 24.9084 104.924 24.9465 106.285 24.9465C107.742 24.9465 109.416 25.0229 110.693 25.8371C111.439 26.3078 112.186 27.2492 112.186 28.4705Z" fill="#5CB85C"/>
    <path d="M172.512 39.7932V38.0503H161.095C159.204 38.0503 157.036 37.8213 156.386 35.7094C156.205 35.1115 156.073 33.852 156.073 32.9869H169.646C170.573 32.9869 171.452 32.8342 172.163 32.2363C173.127 31.4221 173.271 30.2643 173.271 29.2593C173.271 26.7658 172.693 24.3104 169.971 22.8601C167.815 21.7024 164.997 21.5879 162.263 21.5879C160.059 21.5879 156.097 21.5879 153.544 23.4453C150.991 25.3027 150.762 28.0253 150.762 31.7147C150.762 34.3227 150.894 37.0452 152.436 38.9026C154.375 41.2053 157.193 41.3962 159.578 41.3962H171.007C171.826 41.3962 172.512 40.671 172.512 39.7932ZM167.924 28.4705C167.924 28.9921 167.791 29.6282 166.78 29.6282H159.445C157.578 29.6282 156.073 30.5315 156.073 31.6383V29.6282C156.121 28.3306 156.073 27.2492 157.133 26.2442C158.542 24.9084 160.661 24.9465 162.022 24.9465C163.48 24.9465 165.154 25.0228 166.43 25.8371C167.177 26.3078 167.924 27.2492 167.924 28.4705Z" fill="#5CB85C"/>
    <path d="M90.568 16.1301H88.4604C87.6173 16.1301 86.9429 16.8553 86.9429 17.7331V18.1784V21.6515H86.967C87.1115 20.7355 88.099 19.7941 89.5202 19.7941H90.58C91.4231 19.7941 92.0975 19.0689 92.0975 18.1911V17.7458C92.0855 16.8553 91.411 16.1301 90.568 16.1301Z" fill="#5CB85C"/>
    <path d="M49.1104 30.6748V55.8911H2.47224V5.8117H25.918V3.12524H2.47224H0V5.8117V55.8911V58.2244V58.5776H49.1104H51.5725V55.8911V30.6748H49.1104Z" fill="white"/>
    <path d="M12.9589 8.12354H4.49854V17.0605H12.9589V8.12354Z" fill="white"/>
    <path d="M30.0722 8.12354H21.6118V17.0605H30.0722V8.12354Z" fill="white"/>
    <path d="M21.6118 17.0605H12.959V26.2009H21.6118V17.0605Z" fill="white"/>
    <path d="M12.9589 26.2009H4.49854V35.1379H12.9589V26.2009Z" fill="white"/>
    <path d="M30.0722 26.2009H21.6118V35.1379H30.0722V26.2009Z" fill="white"/>
    <path d="M21.6118 35.1379H12.959V44.2783H21.6118V35.1379Z" fill="white"/>
    <path d="M12.9589 44.2783H4.49854V53.2153H12.9589V44.2783Z" fill="white"/>
    <path d="M30.0722 44.2783H21.6118V53.2153H30.0722V44.2783Z" fill="white"/>
    <path d="M38.7251 35.1379H30.0723V44.2783H38.7251V35.1379Z" fill="white"/>
    <path d="M47.1849 44.2783H38.7246V53.2153H47.1849V44.2783Z" fill="white"/>
    <path d="M38.7251 17.0605H30.0723V26.2009H38.7251V17.0605Z" fill="white"/>
    <path d="M47.1849 26.2009H38.7246V35.1379H47.1849V26.2009Z" fill="white"/>
    <path d="M54.4601 20.218H49.1104V25.8692H54.4601V20.218Z" fill="#5CB85C"/>
    <path d="M47.0535 8.12354H40.2549V15.3053H47.0535V8.12354Z" fill="#5CB85C"/>
    <path d="M54.5613 0H49.0596V5.81174H54.5613V0Z" fill="#5CB85C"/>
    <path d="M35.5435 0H30.1431V5.70471H35.5435V0Z" fill="#5CB85C"/>
    <path d="M54.5615 11.5164H52.2412V13.9673H54.5615V11.5164Z" fill="#5CB85C"/>
    <path d="M43.5579 0H40.8628V2.847H43.5579V0Z" fill="#5CB85C"/>
    <path d="M73.5058 53.019C73.5058 54.5621 73.0416 55.9138 72.1017 57.0741C71.1618 58.2344 69.8482 58.8086 68.1609 58.8086C67.4022 58.8086 66.349 58.7727 65.0015 58.7129C65.0694 57.0621 65.1034 55.208 65.1034 53.1505C65.1034 51.1648 65.0694 49.4782 65.0015 48.0786H66.3604C66.5868 48.0786 66.9152 48.0666 67.3455 48.0547C67.7872 48.0427 68.0703 48.0308 68.2062 48.0308C70.0633 48.0308 71.4222 48.5212 72.2602 49.5021C73.0982 50.483 73.5058 51.6433 73.5058 53.019ZM71.3996 53.3659C71.3996 52.3252 71.1051 51.44 70.5276 50.7222C69.9501 50.0045 69.0668 49.6456 67.8778 49.6456C67.6513 49.6456 67.3569 49.6696 66.9605 49.7174C67.0171 50.806 67.0398 51.9424 67.0398 53.1386C67.0398 54.4424 67.0624 55.7343 67.1191 57.0143C67.4588 57.0861 67.7872 57.122 68.1269 57.122C69.2367 57.122 70.052 56.7631 70.5956 56.0334C71.1391 55.3037 71.3996 54.4066 71.3996 53.3659Z" fill="white"/>
    <path d="M84.003 58.701H81.5231C81.5231 58.3421 81.2853 57.3253 80.821 55.6387H77.2426C76.7556 57.2894 76.5178 58.3062 76.5178 58.701H74.1851C74.1851 58.4856 74.7852 56.7392 75.9969 53.4735C77.1973 50.1959 77.8088 48.3896 77.8088 48.0667H80.7304C80.7304 48.3777 81.2739 50.16 82.3724 53.4017C83.4482 56.6435 84.003 58.4139 84.003 58.701ZM80.4246 54.0836C79.5413 51.2725 79.0997 49.7533 79.0997 49.526H78.9751C78.9751 49.7413 78.5222 51.2605 77.6049 54.0836H80.4246Z" fill="white"/>
    <path d="M91.8624 48.0547L91.8058 49.8131C90.7753 49.7294 89.8014 49.6935 88.8841 49.6935C88.8728 50.7222 88.8728 51.8706 88.8728 53.1386C88.8728 55.1004 88.9068 56.9545 88.9634 58.701H86.8005C86.8685 56.9665 86.9024 55.1123 86.9024 53.1386C86.9024 51.8945 86.8911 50.7462 86.8685 49.6935C86.1437 49.6935 85.1472 49.7413 83.8789 49.8251L83.9355 48.0547H91.8624Z" fill="white"/>
    <path d="M101.612 58.701H99.1323C99.1323 58.3421 98.8945 57.3253 98.4302 55.6387H94.8632C94.3762 57.2894 94.1384 58.3062 94.1384 58.701H91.8057C91.8057 58.4856 92.4058 56.7392 93.6175 53.4735C94.8179 50.1959 95.4294 48.3896 95.4294 48.0667H98.351C98.351 48.3777 98.8945 50.16 99.993 53.4017C101.069 56.6435 101.612 58.4139 101.612 58.701ZM98.0452 54.0836C97.1619 51.2725 96.7203 49.7533 96.7203 49.526H96.5957C96.5957 49.7413 96.1428 51.2605 95.2255 54.0836H98.0452Z" fill="white"/>
    <path d="M117.035 50.8419C117.035 52.1457 116.582 53.1027 115.665 53.7247C114.748 54.3468 113.627 54.6578 112.291 54.6578C112.053 54.6578 111.872 54.6578 111.77 54.6458C111.77 55.6745 111.804 57.0263 111.86 58.701H109.686C109.754 57.122 109.788 55.2678 109.788 53.1386C109.788 51.1768 109.754 49.4901 109.686 48.0667H111.034C111.226 48.0667 111.588 48.0547 112.132 48.0427C112.676 48.0308 113.14 48.0188 113.536 48.0188C114.521 48.0188 115.348 48.258 116.016 48.7246C116.696 49.1791 117.035 49.8968 117.035 50.8419ZM115.042 51.2964C115.042 50.1361 114.306 49.55 112.845 49.55C112.483 49.55 112.087 49.5858 111.679 49.6696C111.736 50.6983 111.77 51.8706 111.77 53.1625C111.894 53.1745 112.053 53.1745 112.223 53.1745C114.102 53.1864 115.042 52.5524 115.042 51.2964Z" fill="white"/>
    <path d="M124.985 56.9186L124.929 58.701H118.497C118.553 57.2296 118.587 55.3635 118.587 53.1386C118.587 51.0931 118.553 49.3944 118.497 48.0667H120.671C120.614 49.2987 120.58 50.9974 120.58 53.1386C120.58 54.7774 120.546 56.0813 120.478 57.0502C121.894 57.0382 123.4 57.0023 124.985 56.9186Z" fill="white"/>
    <path d="M134.962 58.701H132.482C132.482 58.3421 132.244 57.3253 131.779 55.6387H128.201C127.714 57.2894 127.476 58.3062 127.476 58.701H125.144C125.144 58.4856 125.744 56.7392 126.955 53.4735C128.156 50.1959 128.767 48.3896 128.767 48.0667H131.689C131.689 48.3777 132.232 50.16 133.331 53.4017C134.418 56.6435 134.962 58.4139 134.962 58.701ZM131.394 54.0836C130.511 51.2725 130.07 49.7533 130.07 49.526H129.945C129.945 49.7413 129.492 51.2605 128.575 54.0836H131.394Z" fill="white"/>
    <path d="M142.832 48.0547L142.775 49.8131C141.745 49.7294 140.771 49.6935 139.853 49.6935C139.842 50.7222 139.842 51.8706 139.842 53.1386C139.842 55.1004 139.876 56.9545 139.933 58.701H137.77C137.838 56.9665 137.872 55.1123 137.872 53.1386C137.872 51.8945 137.86 50.7462 137.838 49.6935C137.113 49.6935 136.116 49.7413 134.848 49.8251L134.905 48.0547H142.832Z" fill="white"/>
    <path d="M150.532 48.0547L150.464 49.849C148.856 49.7653 147.395 49.7174 146.093 49.7174C146.161 50.6505 146.195 51.6792 146.195 52.8156C147.191 52.8156 148.324 52.7917 149.581 52.7319V54.4185C148.301 54.3707 147.169 54.3468 146.195 54.3468C146.195 55.8899 146.218 57.3373 146.263 58.701H144.123C144.191 57.0502 144.224 55.1961 144.224 53.1386C144.224 51.1529 144.191 49.4662 144.123 48.0667H150.532V48.0547Z" fill="white"/>
    <path d="M161.222 53.1864C161.222 54.8611 160.735 56.2487 159.773 57.3492C158.799 58.4498 157.598 59 156.172 59C154.813 59 153.669 58.4976 152.752 57.4808C151.834 56.476 151.37 55.1841 151.37 53.629C151.37 51.9543 151.857 50.5667 152.82 49.4662C153.793 48.3657 154.994 47.8154 156.421 47.8154C157.78 47.8154 158.923 48.3178 159.841 49.3227C160.769 50.3394 161.222 51.6194 161.222 53.1864ZM159.093 53.4257C159.093 52.2893 158.821 51.3682 158.266 50.6504C157.712 49.9447 157.032 49.5858 156.228 49.5858C155.469 49.5858 154.835 49.9447 154.314 50.6624C153.793 51.3801 153.522 52.2773 153.522 53.3659C153.522 54.5023 153.793 55.4233 154.348 56.1291C154.903 56.8349 155.583 57.1937 156.387 57.1937C157.145 57.1937 157.78 56.8349 158.3 56.1171C158.833 55.4114 159.093 54.5023 159.093 53.4257Z" fill="white"/>
    <path d="M171.097 58.701H168.809C168.209 56.7751 167.756 55.5788 167.428 55.1243C167.099 54.6697 166.59 54.4424 165.876 54.4424C165.582 54.4424 165.288 54.4424 165.016 54.4544C165.016 55.854 165.038 57.2655 165.084 58.701H162.932C163 57.0502 163.034 55.1961 163.034 53.1386C163.034 51.1529 163 49.4662 162.932 48.0667H164.28C164.438 48.0667 164.755 48.0547 165.254 48.0427C165.74 48.0308 166.205 48.0188 166.624 48.0188C168.991 48.0188 170.18 48.8801 170.18 50.5906C170.18 51.9424 169.5 52.8874 168.153 53.4257V53.5453C168.673 53.7008 169.126 54.1314 169.523 54.8372C169.896 55.531 170.429 56.8229 171.097 58.701ZM168.186 51.1768C168.186 50.0882 167.53 49.5499 166.205 49.5499C165.718 49.5499 165.288 49.5858 164.925 49.6696C164.982 50.5189 165.016 51.6194 165.016 52.9711C165.299 52.9831 165.537 52.9831 165.741 52.9831C167.371 52.9831 168.186 52.385 168.186 51.1768Z" fill="white"/>
    <path d="M184.006 58.701H181.753C181.753 57.7799 181.696 56.2129 181.594 54.0118C181.481 51.8108 181.424 50.4471 181.424 49.8969H181.311C181.254 50.2198 181.118 50.8299 180.903 51.7151C180.677 52.6003 180.269 53.9042 179.658 55.6147C179.046 57.3373 178.74 58.366 178.74 58.701H177.03C177.03 58.3541 176.736 57.3134 176.147 55.5908C175.558 53.8683 175.173 52.6481 175.003 51.9663C174.822 51.2725 174.675 50.5907 174.573 49.9088H174.46C174.46 50.5907 174.392 52.05 174.267 54.287C174.143 56.5239 174.086 57.9952 174.086 58.7129H172.048C172.048 58.5455 172.24 56.9067 172.614 53.7965C172.988 50.6864 173.18 48.7724 173.18 48.0667H176.17C176.17 48.6767 176.487 50.0284 177.121 52.1098C177.755 54.1913 178.072 55.5191 178.072 56.1052H178.186C178.186 55.5191 178.548 54.1793 179.261 52.0979C179.986 50.0165 180.337 48.6767 180.337 48.0667H183.304C183.304 49.1911 183.429 51.2127 183.666 54.1075C183.893 56.9904 184.006 58.5335 184.006 58.701Z" fill="white"/>
</svg>
